<svg width="558" height="558" viewBox="0 0 558 558" fill="none" xmlns="http://www.w3.org/2000/svg">
<path d="M314.838 23.0037H125.399C111.82 23.0037 98.7974 28.3979 89.1956 37.9997C79.5938 47.6015 74.1996 60.6243 74.1996 74.2033V483.8C74.1996 497.379 79.5938 510.402 89.1956 520.004C98.7974 529.606 111.82 535 125.399 535H432.597C446.176 535 459.199 529.606 468.801 520.004C478.402 510.402 483.797 497.379 483.797 483.8V294.362M23 125.403H125.399M23 227.802H125.399M23 330.201H125.399M23 432.601H125.399M519.073 115.829C529.271 105.631 535 91.7995 535 77.3777C535 62.9558 529.271 49.1246 519.073 38.9267C508.875 28.7289 495.044 22.9998 480.622 22.9998C466.2 22.9998 452.369 28.7289 442.171 38.9267L313.916 167.233C307.83 173.316 303.375 180.835 300.963 189.095L279.536 262.567C278.893 264.769 278.855 267.105 279.424 269.327C279.994 271.55 281.15 273.579 282.773 275.202C284.395 276.824 286.424 277.981 288.647 278.55C290.87 279.12 293.205 279.081 295.408 278.439L368.879 257.012C377.139 254.599 384.658 250.144 390.741 244.058L519.073 115.829Z" stroke="url(#paint0_linear_25_10)" stroke-width="46" stroke-linecap="round" stroke-linejoin="round"/>
<defs>
<linearGradient id="paint0_linear_25_10" x1="577.5" y1="-90.5" x2="73.5" y2="557.5" gradientUnits="userSpaceOnUse">
<stop stop-color="white"/>
<stop offset="1" stop-color="#999999"/>
</linearGradient>
</defs>
</svg>
